<?xml version="1.0" encoding="UTF-8"?>
<svg id="Layer_1" xmlns="http://www.w3.org/2000/svg" version="1.1" viewBox="0 0 400 400">
  <!-- Generator: Adobe Illustrator 30.4.0, SVG Export Plug-In . SVG Version: 2.1.4 Build 226)  -->
  <defs>
    <style>
      .st0 {
        fill: #006a52;
      }
    </style>
  </defs>
  <path class="st0" d="M315.24,57.54c-23.04-16.73-58.95-25.09-107.78-25.09H49.74v28.65h21.11c3.45,0,6.9.59,10.35,1.87,3.39,1.23,6.26,3.68,8.42,7.25,2.16,3.63,3.27,9.3,3.27,17.13v223.45c0,8.19-1.11,14.27-3.27,18.36-2.16,4.04-5.15,6.72-8.89,7.95-3.8,1.23-7.84,1.87-12.22,1.87h-18.77v28.65h190.12v-28.65h-31.46c-3.74,0-7.25-.53-10.53-1.64-3.33-1.11-5.96-3.51-8.01-7.25-2.05-3.8-3.04-9.42-3.04-16.9v-71.87h10.35c27.84,0,51.46-2.63,70.88-7.95,19.42-5.32,35.15-12.92,47.19-22.75,12.05-9.88,20.76-21.4,26.26-34.56,5.5-13.1,8.25-27.49,8.25-43.16,0-33.51-11.52-58.6-34.5-75.38ZM248.57,169.29c-2.34,9.53-5.97,17.37-10.82,23.45-4.85,6.14-10.94,10.58-18.3,13.39-7.37,2.81-16.2,4.27-26.55,4.27h-19.82c3.51-.94,6.67-3.1,8.01-6.37,1.93-4.62-2.75-9.88-1.7-12.57.76-1.93,4.91-2.92,5.38-6.78.18-1.64-.99-3.57-2.28-4.62l3.51-2.57c.23-1.29.35-2.34.35-3.33,0-.82-.06-1.58-.18-2.4-1.34-2.28-1.17-4.56.18-6.26.53-.76,1.29-1.35,2.28-1.87,1.93-.99,3.92-2.11,5.61-3.45,4.97-3.8-1.93-10.29-7.89-17.6-2.63-3.27-5.15-6.67-6.37-10.12-1.64-4.62-1.29-9.65-.94-14.56.94-13.33-1.64-25.96-8.42-37.54-3.57-6.14-7.95-11.64-13.1-16.43h41.99c17.84,0,31.05,5.79,39.65,17.37,8.6,11.58,12.92,29.42,12.92,53.51,0,13.45-1.17,24.97-3.51,34.5Z"/>
</svg>